<svg xmlns="http://www.w3.org/2000/svg" version="1.1" xmlns:xlink="http://www.w3.org/1999/xlink" xmlns:svgjs="http://svgjs.dev/svgjs" width="1000" height="623" viewBox="0 0 1000 623"><g transform="matrix(1,0,0,1,-0.6060606060606233,0.2522267206477409)"><svg viewBox="0 0 396 247" data-background-color="#ffffff" preserveAspectRatio="xMidYMid meet" height="623" width="1000" xmlns="http://www.w3.org/2000/svg" xmlns:xlink="http://www.w3.org/1999/xlink"><g id="tight-bounds" transform="matrix(1,0,0,1,0.2400000000000091,-0.09999999999999432)"><svg viewBox="0 0 395.52 247.2" height="247.2" width="395.52"><g><svg></svg></g><g><svg viewBox="0 0 395.52 247.2" height="247.2" width="395.52"><g transform="matrix(1,0,0,1,134.92734193548387,47.215199999999996)"><svg viewBox="0 0 125.66531612903226 152.7696" height="152.7696" width="125.66531612903226"><g><svg viewBox="0 0 125.66531612903226 152.7696" height="152.7696" width="125.66531612903226"><g><svg viewBox="0 0 125.66531612903226 152.7696" height="152.7696" width="125.66531612903226"><g id="textblocktransform"><svg viewBox="0 0 125.66531612903226 152.7696" height="152.7696" width="125.66531612903226" id="textblock"><g><svg viewBox="0 0 125.66531612903226 152.7696" height="152.7696" width="125.66531612903226"><g transform="matrix(1,0,0,1,0,0)"><svg width="125.66531612903226" viewBox="0.6000000238418579 -34.099998474121094 28.049999237060547 34.099998474121094" height="152.7696" data-palette-color="#233565"><path d="M28.65 0L25.15 0 21.65-9.55 7.5-9.55 4.35 0 0.6 0 12.7-34.1 16.2-34.1 28.65 0ZM14.4-29.2L8.65-12.65 20.5-12.65 14.4-29.2Z" opacity="1" transform="matrix(1,0,0,1,0,0)" fill="#ffffff" class="undefined-text-0" data-fill-palette-color="primary" id="text-0"></path></svg></g></svg></g></svg></g></svg></g></svg></g></svg></g><path d="M78.291 41.215L78.291 0 325.491 0 325.491 247.2 78.291 247.2 78.291 205.985 92.068 205.985 92.068 233.423 311.714 233.423 311.714 13.777 92.068 13.777 92.068 41.215Z" fill="#ffffff" stroke="transparent" data-fill-palette-color="primary"></path></svg></g><defs></defs></svg><rect width="395.52" height="247.2" fill="none" stroke="none" visibility="hidden"></rect></g></svg></g></svg>